<svg width="88" height="79" viewBox="0 0 88 79" fill="none" xmlns="http://www.w3.org/2000/svg">
<path d="M64 0C77.2548 0 88 9.17816 88 20.5C88 31.8218 77.2548 41 64 41C59.8724 41 55.9888 40.1086 52.5967 38.541C52.8598 39.8166 53 41.141 53 42.5C53 52.7173 45.165 61 35.5 61C35.255 61 35.0112 60.993 34.7686 60.9824C34.9197 61.8019 35 62.6427 35 63.5C35 72.0604 27.165 79 17.5 79C7.83502 79 0 72.0604 0 63.5C0 54.9396 7.83502 48 17.5 48C17.9372 48 18.3707 48.0141 18.7998 48.042C18.2807 46.2922 18 44.4308 18 42.5C18 32.2827 25.835 24 35.5 24C37.2461 24 38.9322 24.2712 40.5234 24.7744C40.181 23.3956 40 21.9659 40 20.5C40 9.17816 50.7452 0 64 0Z" fill="#CBE3FF"/>
</svg>
