<svg width="268" height="97" viewBox="0 0 268 97" fill="none" xmlns="http://www.w3.org/2000/svg">
<path d="M187.227 2.1062C200.497 -2.72384 215.104 1.01313 226.417 10.657C230.599 9.66597 234.983 9.13943 239.5 9.1394C268.495 9.1394 292 30.8538 292 57.6394C292 84.4252 268.495 106.139 239.5 106.139C230.985 106.139 222.945 104.265 215.834 100.941C207.787 105.319 195.177 108.139 181 108.139C166.631 108.139 153.871 105.243 145.841 100.763C145.057 109.914 138.961 118.302 129.578 121.717C116.796 126.369 102.756 120.032 98.2178 107.563C98.1436 107.359 98.0721 107.155 98.0039 106.951C93.4082 117.9 73.4392 126.139 49.5 126.139C22.162 126.139 0 115.394 0 102.139C0.000408186 88.8848 22.1623 78.1395 49.5 78.1394C56.4429 78.1394 63.0519 78.8345 69.0488 80.0857C70.3138 71.5007 76.2532 63.7994 85.1445 60.5632C97.9265 55.9111 111.968 62.2473 116.506 74.7156C116.605 74.988 116.697 75.2622 116.785 75.5359C122.027 74.4721 127.309 75.1408 131.913 77.2175C131.255 76.068 130.686 74.8484 130.218 73.5632C125.68 61.0948 132.362 47.2155 145.145 42.5632C150.827 40.4949 156.758 40.6001 161.993 42.449C161.986 24.1227 171.429 7.85611 187.227 2.1062Z" fill="white"/>
</svg>
