<svg width="135" height="84" viewBox="0 0 135 84" fill="none" xmlns="http://www.w3.org/2000/svg">
<path d="M0 16L5.53553 14.4645L7.07107 8.92893L8.6066 14.4645L14.1421 16L8.6066 17.5355L7.07107 23.0711L5.53553 17.5355L0 16Z" fill="#E6E6E6"/>
<circle cx="18.071" cy="2" r="2" fill="white"/>
<circle cx="48.071" cy="82" r="2" fill="white"/>
<circle cx="122.071" cy="32" r="2" fill="white"/>
<path d="M20 66L25.5355 64.4645L27.0711 58.9289L28.6066 64.4645L34.1421 66L28.6066 67.5355L27.0711 73.0711L25.5355 67.5355L20 66Z" fill="#E6E6E6"/>
<path d="M80 46L85.5355 44.4645L87.0711 38.9289L88.6066 44.4645L94.1421 46L88.6066 47.5355L87.0711 53.0711L85.5355 47.5355L80 46Z" fill="#E6E6E6"/>
<path d="M120 76L125.536 74.4645L127.071 68.9289L128.607 74.4645L134.142 76L128.607 77.5355L127.071 83.0711L125.536 77.5355L120 76Z" fill="#E6E6E6"/>
<path d="M21 46L32.0711 42.9289L35.1421 31.8579L38.2132 42.9289L49.2843 46L38.2132 49.0711L35.1421 60.1421L32.0711 49.0711L21 46Z" fill="#E6E6E6"/>
<path d="M91 16L102.071 12.9289L105.142 1.85786L108.213 12.9289L119.284 16L108.213 19.0711L105.142 30.1421L102.071 19.0711L91 16Z" fill="#E6E6E6"/>
</svg>
